<svg width="69" height="78" xmlns="http://www.w3.org/2000/svg"><g stroke-width="2.4" stroke="#FB3A52" fill="none" fill-rule="evenodd" stroke-linecap="round"><path d="M34.173 2.002c18.042 0 32.671 14.63 32.671 32.67 0 8.986-3.628 17.12-9.498 23.026v18.897H9.116v-20.96H1.5V34.673m0-.001c0-18.058 14.613-32.671 32.673-32.671" stroke-linejoin="round"/><path d="M24.967 74.53V38.995m7.901 36.782V40.553m0-.001l6.708-6.71m-.001.001V23.46m0 53.135V53.772m0 0L50.25 43.25"/><path d="M24.967 38.993h-6.054m-12.345 0H1.693m6.039.018a5.64 5.64 0 005.64 5.642 5.64 5.64 0 005.642-5.642 5.64 5.64 0 00-5.642-5.642 5.64 5.64 0 00-5.64 5.642zm25.992-21.404a5.85 5.85 0 005.851 5.853 5.85 5.85 0 005.852-5.853 5.85 5.85 0 00-5.852-5.852 5.85 5.85 0 00-5.851 5.852zm14.39 21.404a5.64 5.64 0 005.64 5.642 5.64 5.64 0 005.642-5.642 5.64 5.64 0 00-5.642-5.642 5.64 5.64 0 00-5.64 5.642z" stroke-linejoin="round"/><path d="M9.115 62.194h9.227"/></g></svg>