<svg width="32" height="32" xmlns="http://www.w3.org/2000/svg"><path d="M23.075 12.658c-4.057 0-5.06 3.25-5.06 5.31 0 2.06.566 5.676 5.322 5.676s4.493-3.402 4.493-3.402h-2.574c-.566 1.422-2.05 1.159-2.05 1.159-2.311 0-2.443-2.853-2.443-2.853h7.067c.174-2.93-.87-5.89-4.755-5.89zm-2.18 4.257s.304-2.06 2.202-2.06c1.897 0 2.203 2.06 2.203 2.06h-4.405zm4.45-6.909h-5.012v1.445h5.012v-1.445zM14.404 15.93c2.01-.941 1.919-3.155 1.919-3.155-.046-3.532-3.198-3.485-3.198-3.485H4.95V23.7h8.175s3.929-.189 3.837-4.05c-.092-3.862-2.558-3.72-2.558-3.72zm-6.185-4.113l3.536-.004s1.365-.102 1.365 1.688-1.353 1.685-1.353 1.685H8.219v-3.37zm3.628 9.255l-3.628.011v-3.369h3.624s2.093-.106 2.093 1.685c0 1.79-2.09 1.673-2.09 1.673z" fill="#012133" fill-rule="evenodd"/></svg>