<svg width="32" height="32" xmlns="http://www.w3.org/2000/svg"><g fill="none" fill-rule="evenodd"><path fill="#FFF" d="M-1012 92H268v-492h-1280z"/><path fill="#FFF" d="M-937 92H343v-492H-937z"/><path d="M15.853 5C9.547 5.024 4.434 10.178 4.46 16.484c.026 6.31 5.178 11.42 11.487 11.395 6.307-.026 11.419-5.178 11.393-11.486C27.314 10.085 22.162 4.974 15.853 5zm7.586 5.245a9.73 9.73 0 012.23 6.078c-.32-.067-3.554-.71-6.805-.288-.068-.167-.14-.334-.211-.503a30.087 30.087 0 00-.655-1.413c3.608-1.488 5.235-3.595 5.441-3.874zM15.86 6.683a9.721 9.721 0 016.488 2.437c-.174.25-1.637 2.234-5.107 3.55a52.208 52.208 0 00-3.669-5.707 9.733 9.733 0 012.288-.28zm-4.15.944a63.114 63.114 0 013.647 5.637c-4.566 1.233-8.592 1.231-9.03 1.226a9.814 9.814 0 015.383-6.863zm-5.58 8.866c0-.1.001-.2.004-.299.428.007 5.163.05 10.036-1.431.283.547.552 1.1.8 1.656a8.55 8.55 0 00-.385.118c-5.033 1.65-7.697 6.1-7.917 6.478a9.735 9.735 0 01-2.538-6.522zm9.811 9.733a9.714 9.714 0 01-6.006-2.04c.175-.359 2.137-4.19 7.64-6.131l.065-.023c1.387 3.559 1.966 6.545 2.115 7.401a9.724 9.724 0 01-3.814.793zm5.453-1.694c-.103-.593-.635-3.453-1.928-6.96 3.06-.501 5.754.29 6.089.394a9.793 9.793 0 01-4.161 6.566z" fill="#012133"/></g></svg>