<svg width="32" height="32" xmlns="http://www.w3.org/2000/svg"><g fill="none" fill-rule="evenodd"><path fill="#FFF" d="M-950 92H330v-492H-950z"/><path fill="#FFF" d="M-875 92H405v-492H-875z"/><path d="M24.99 5H7.83a2.86 2.86 0 00-2.86 2.86v17.16a2.86 2.86 0 002.86 2.86h17.16a2.86 2.86 0 002.86-2.86V7.86A2.86 2.86 0 0024.99 5zM12.596 22.16h-2.86v-8.58h2.86v8.58zm-1.43-9.532a1.431 1.431 0 11.003-2.863 1.431 1.431 0 01-.003 2.863zm11.918 9.532h-2.862v-4.766c0-1.061-.314-1.587-1.3-1.587-1.6 0-1.558 1.587-1.558 1.587v4.766h-2.86v-8.58h2.86v1.43s.532-1.43 2.858-1.43c1.794 0 2.862 1.389 2.862 3.814v4.766z" fill="#012133"/></g></svg>