<svg height="86" width="76" xmlns="http://www.w3.org/2000/svg"><g stroke="#fb3c54" fill="none" fill-rule="evenodd" stroke-linecap="round" stroke-linejoin="round" stroke-width="2.4"><path d="M11.946 57.904c5.968 0 10.805 4.838 10.805 10.806M1.848 74.377c0 5.559 4.505 10.064 10.064 10.064m.034-26.736v-5.533l3.944-3.942a7.762 7.762 0 000-10.976l-.167-.208L3.347 49.423c-.913.63-1.5 1.614-1.5 2.722v22.233"/><path d="M7.93 44.838V6.263c0-2.779 2.122-5.03 4.738-5.03H43.14c2.617 0 4.737 2.251 4.737 5.03v18.352M23.815 8.508h8.179M74.408 39.67L59.024 24.285"/><path d="M43.773 39.074L30.07 25.37a3.786 3.786 0 00-5.354 5.354l25.97 25.97-5.72.01-3.767-3.768a7.413 7.413 0 00-10.482 0l-.2.159 11.822 11.82c.602.872 1.543 1.433 2.6 1.434l11.425.432m2.428-42.726a3.532 3.532 0 00-4.995.012 3.531 3.531 0 00-.012 4.994 3.532 3.532 0 00-4.994.013 3.533 3.533 0 00-.012 4.994 3.531 3.531 0 00-4.994.011 3.531 3.531 0 00-.012 4.995m-6.986 27.32H23.285"/></g></svg>