<svg width="32" height="32" xmlns="http://www.w3.org/2000/svg"><g fill="none" fill-rule="evenodd"><path fill="#FFF" d="M-888 92H392v-492H-888z"/><path fill="#FFF" d="M-813 92H467v-492H-813z"/><path d="M27.747 6.783c-.92.56-1.93.955-2.983 1.17a4.637 4.637 0 00-3.428-1.523c-2.596 0-4.7 2.158-4.7 4.818 0 .377.042.743.121 1.096-3.902-.2-7.365-2.119-9.68-5.032a4.882 4.882 0 00-.636 2.423c0 1.67.778 3.143 2.038 4.007-.771-.025-1.362-.242-2.178-.601v.059a4.836 4.836 0 003.816 4.724 4.512 4.512 0 01-2.083.08c.6 1.915 2.34 3.307 4.394 3.347a9.262 9.262 0 01-6.948 1.993 13.042 13.042 0 007.201 2.165c8.64 0 13.365-7.339 13.365-13.704 0-.208-.004-.417-.013-.623a9.681 9.681 0 002.344-2.493 9.24 9.24 0 01-2.698.76 4.808 4.808 0 002.068-2.666z" fill="#012133"/></g></svg>