<svg width="73" height="73" xmlns="http://www.w3.org/2000/svg"><g fill="none" fill-rule="evenodd"><path d="M-7.486-7.486h87.973v87.973H-7.486z"/><path stroke="#FB3C54" stroke-width="2.394" stroke-linecap="round" stroke-linejoin="round" d="M22.188 33.018L1.42 12.293 12.25 1.488l20.765 20.724m17.561 17.523L71.71 60.818 60.881 71.625 39.748 50.541M7.63 16.907l4.621-4.613m7.539 16.749l4.622-4.612M44.11 53.314l4.622-4.613m7.159 16.369l4.622-4.612m-44.955 7.507L1.603 71.084 4.73 57.158 58.088 3.907a7.67 7.67 0 0110.83 0 7.632 7.632 0 010 10.807l-53.36 53.251z"/><path d="M52.761 10.805l4.623 4.613m-41.166 41.08l35.796-35.722" stroke="#FB3C54" stroke-width="2.394" fill="#FFF" stroke-linecap="round" stroke-linejoin="round"/><path d="M5.523 56.366L16.35 67.173" stroke="#FB3C54" stroke-width="2.394" stroke-linecap="round" stroke-linejoin="round"/></g></svg>