<svg viewBox="0 0 84 35" xmlns="http://www.w3.org/2000/svg"><path d="M83 31h-2.3c.2-6.4.1-12.5-.1-16.7-.2-2.6-.3-4.3-.6-5.8-.3-1.6-.7-2.2-.8-2.4-.2.1-.8.7-1.7 2.4-.8 1.5-1.8 3.3-2.8 6-1.5 4.3-3.2 9.3-5.1 16.4h-2.4c2-7.1 3.9-13.5 5.5-17.9 1.1-2.9 2.2-4.8 3.1-6.4 1.4-2.5 2.6-2.9 3.3-2.9h.3c2 .3 2.9 2.8 3.3 9.5.4 4.6.5 10.7.3 17.8zm-31.6-1.4c-1.4-1.9-.6-4.6-.4-5L56.6 4H59l-5.8 21.3c-.2.5-.5 2.2.1 3.1.1.1.4.5 1.5.5h6.7V31h-6.7c-1.9 0-2.9-.7-3.4-1.4zM38.6 14c.2 1.1.7 2 1.2 2.9.6.9 1.2 2 1.6 3.5.6 2.6 0 5.5-1.7 8.6-1 1.8-2.4 3.5-4.2 5.6h-3.2v-.1c5.4-5.3 7.7-9.9 6.9-13.7-.3-1.2-.8-2-1.3-2.8-.6-1-1.3-2.1-1.5-3.6-.3-2.1.2-4.4 1.5-6.7 1.3-2.2 3.4-4.4 6.3-7.2h3.6C41.1 6.2 38 10.3 38.6 14zM19.1 31l7.2-27h2.3l-7.1 27zM7.5 28.3c-1.4 2.5-2.6 2.9-3.4 2.9h-.3c-2-.3-2.9-2.8-3.3-9.6C.1 17.3.1 11.1.3 4h2.3c-.2 6.4-.1 12.5.1 16.7.2 2.6.3 4.3.6 5.8.3 1.6.7 2.2.8 2.4.2-.1.8-.7 1.7-2.4.8-1.5 1.8-3.3 2.8-6.1 1.5-4.3 3.2-10 5.1-16.4h2.4c-2 7.1-3.9 13.5-5.5 17.9-1.1 2.9-2.2 4.9-3.1 6.4z" fill="#0d2233"/></svg>