<svg height="72" width="86" xmlns="http://www.w3.org/2000/svg"><g fill="none" fill-rule="evenodd"><g stroke="#fb3c54" stroke-linecap="round" stroke-linejoin="round" stroke-width="2.4"><path d="M69.26 70.572H5.74c-2.34 0-4.24-2.108-4.24-4.705V18.833c0-2.598 1.9-4.705 4.24-4.705h63.52c2.34 0 4.24 2.107 4.24 4.705v47.034c0 2.597-1.9 4.705-4.24 4.705z"/><path d="M12.542 8.343V6.205c0-2.598 1.9-4.705 4.24-4.705h63.52c2.34 0 4.24 2.107 4.24 4.705v47.033c0 2.598-1.9 4.705-4.24 4.705M2.792 29.968h60M47.815 61.315L27.408 40.907M27 48.233v-7.728l.005-.005h7.726"/></g><path d="M9.534 23.982a1.95 1.95 0 100-3.9 1.95 1.95 0 000 3.9zm6.458 0a1.95 1.95 0 100-3.9 1.95 1.95 0 000 3.9zm6.458 0a1.95 1.95 0 100-3.9 1.95 1.95 0 000 3.9z" fill="#fb3c54"/></g></svg>